<svg xmlns="http://www.w3.org/2000/svg" viewBox="0 0 128 128" fill="none">
  <path
    d="M30 28h68a10 10 0 0 1 10 10v14c-6 0-10 4-10 10s4 10 10 10v14a10 10 0 0 1-10 10H30a10 10 0 0 1-10-10V72c6 0 10-4 10-10s-4-10-10-10V38a10 10 0 0 1 10-10Z"
    stroke="#2563eb"
    stroke-width="6"
    stroke-linejoin="round"
  />
  <path d="M48 42h36" stroke="#2563eb" stroke-width="6" stroke-linecap="round" />
  <path d="M48 58h22" stroke="#2563eb" stroke-width="6" stroke-linecap="round" />
  <circle cx="83" cy="78" r="12" fill="#f59e0b" />
  <path d="M78 78l3 3 7-8" stroke="#111827" stroke-width="5" stroke-linecap="round" stroke-linejoin="round" />
</svg>
